<mxfile host="app.diagrams.net" modified="2020-12-27T03:35:03.533Z" agent="5.0 (Macintosh; Intel Mac OS X 10_15_2) AppleWebKit/537.36 (KHTML, like Gecko) Chrome/87.0.4280.88 Safari/537.36" etag="Q93ot9_61tff3Eoo3ZCJ" version="14.1.1" type="github">
  <diagram id="kgpKYQtTHZ0yAKxKKP6v" name="Page-1">
    <mxGraphModel dx="3953" dy="2653" grid="1" gridSize="10" guides="1" tooltips="1" connect="1" arrows="1" fold="1" page="1" pageScale="1" pageWidth="850" pageHeight="1100" math="0" shadow="0">
      <root>
        <mxCell id="0" />
        <mxCell id="1" parent="0" />
        <mxCell id="3nuBFxr9cyL0pnOWT2aG-1" value="PERK UP WITH A LATTE" style="shape=table;childLayout=tableLayout;rowLines=0;columnLines=0;startSize=40;html=1;whiteSpace=wrap;collapsible=0;recursiveResize=0;expand=0;fontStyle=1" parent="1" vertex="1">
          <mxGeometry x="100" y="70" width="670" height="300" as="geometry" />
        </mxCell>
        <mxCell id="3nuBFxr9cyL0pnOWT2aG-2" value="" style="edgeStyle=orthogonalEdgeStyle;rounded=0;orthogonalLoop=1;jettySize=auto;html=1;" parent="3nuBFxr9cyL0pnOWT2aG-1" source="3nuBFxr9cyL0pnOWT2aG-7" target="3nuBFxr9cyL0pnOWT2aG-17" edge="1">
          <mxGeometry relative="1" as="geometry" />
        </mxCell>
        <mxCell id="3nuBFxr9cyL0pnOWT2aG-3" value="Customer" style="swimlane;horizontal=0;points=[[0,0.5],[1,0.5]];portConstraint=eastwest;startSize=40;html=1;whiteSpace=wrap;collapsible=0;recursiveResize=0;expand=0;" parent="3nuBFxr9cyL0pnOWT2aG-1" vertex="1">
          <mxGeometry y="40" width="670" height="180" as="geometry" />
        </mxCell>
        <mxCell id="3nuBFxr9cyL0pnOWT2aG-4" value="Feel tired" style="swimlane;connectable=0;startSize=40;html=1;whiteSpace=wrap;collapsible=0;recursiveResize=0;expand=0;" parent="3nuBFxr9cyL0pnOWT2aG-3" vertex="1">
          <mxGeometry x="40" width="130" height="180" as="geometry" />
        </mxCell>
        <mxCell id="3nuBFxr9cyL0pnOWT2aG-5" style="edgeStyle=orthogonalEdgeStyle;rounded=0;orthogonalLoop=1;jettySize=auto;html=1;" parent="3nuBFxr9cyL0pnOWT2aG-4" source="3nuBFxr9cyL0pnOWT2aG-6" target="3nuBFxr9cyL0pnOWT2aG-7" edge="1">
          <mxGeometry relative="1" as="geometry" />
        </mxCell>
        <mxCell id="3nuBFxr9cyL0pnOWT2aG-6" value="Start" style="rounded=1;whiteSpace=wrap;html=1;arcSize=50;" parent="3nuBFxr9cyL0pnOWT2aG-4" vertex="1">
          <mxGeometry x="20" y="60" width="90" height="40" as="geometry" />
        </mxCell>
        <mxCell id="3nuBFxr9cyL0pnOWT2aG-7" value="Find barista" style="rounded=0;whiteSpace=wrap;html=1;" parent="3nuBFxr9cyL0pnOWT2aG-4" vertex="1">
          <mxGeometry x="20" y="120" width="90" height="40" as="geometry" />
        </mxCell>
        <mxCell id="3nuBFxr9cyL0pnOWT2aG-8" value="Make transaction" style="swimlane;connectable=0;startSize=40;html=1;whiteSpace=wrap;collapsible=0;recursiveResize=0;expand=0;" parent="3nuBFxr9cyL0pnOWT2aG-3" vertex="1">
          <mxGeometry x="170" width="370" height="180" as="geometry" />
        </mxCell>
        <mxCell id="3nuBFxr9cyL0pnOWT2aG-9" value="Request latte" style="rounded=0;whiteSpace=wrap;html=1;" parent="3nuBFxr9cyL0pnOWT2aG-8" vertex="1">
          <mxGeometry x="20" y="120" width="90" height="40" as="geometry" />
        </mxCell>
        <mxCell id="3nuBFxr9cyL0pnOWT2aG-10" value="Buy latte" style="rounded=0;whiteSpace=wrap;html=1;" parent="3nuBFxr9cyL0pnOWT2aG-8" vertex="1">
          <mxGeometry x="150" y="120" width="90" height="40" as="geometry" />
        </mxCell>
        <mxCell id="3nuBFxr9cyL0pnOWT2aG-11" value="Feel perky" style="swimlane;connectable=0;startSize=40;html=1;whiteSpace=wrap;collapsible=0;recursiveResize=0;expand=0;" parent="3nuBFxr9cyL0pnOWT2aG-3" vertex="1">
          <mxGeometry x="540" width="130" height="180" as="geometry" />
        </mxCell>
        <mxCell id="3nuBFxr9cyL0pnOWT2aG-12" style="edgeStyle=orthogonalEdgeStyle;rounded=0;orthogonalLoop=1;jettySize=auto;html=1;" parent="3nuBFxr9cyL0pnOWT2aG-11" source="3nuBFxr9cyL0pnOWT2aG-13" target="3nuBFxr9cyL0pnOWT2aG-14" edge="1">
          <mxGeometry relative="1" as="geometry" />
        </mxCell>
        <mxCell id="3nuBFxr9cyL0pnOWT2aG-13" value="Drink latte" style="rounded=0;whiteSpace=wrap;html=1;" parent="3nuBFxr9cyL0pnOWT2aG-11" vertex="1">
          <mxGeometry x="20" y="60" width="90" height="40" as="geometry" />
        </mxCell>
        <mxCell id="3nuBFxr9cyL0pnOWT2aG-14" value="End" style="rounded=1;whiteSpace=wrap;html=1;arcSize=50;" parent="3nuBFxr9cyL0pnOWT2aG-11" vertex="1">
          <mxGeometry x="20" y="120" width="90" height="40" as="geometry" />
        </mxCell>
        <mxCell id="3nuBFxr9cyL0pnOWT2aG-15" value="Barista" style="swimlane;horizontal=0;points=[[0,0.5],[1,0.5]];portConstraint=eastwest;startSize=40;html=1;whiteSpace=wrap;collapsible=0;recursiveResize=0;expand=0;" parent="3nuBFxr9cyL0pnOWT2aG-1" vertex="1">
          <mxGeometry y="220" width="670" height="80" as="geometry" />
        </mxCell>
        <mxCell id="3nuBFxr9cyL0pnOWT2aG-16" value="" style="swimlane;connectable=0;startSize=0;html=1;whiteSpace=wrap;collapsible=0;recursiveResize=0;expand=0;" parent="3nuBFxr9cyL0pnOWT2aG-15" vertex="1">
          <mxGeometry x="40" width="130" height="80" as="geometry" />
        </mxCell>
        <mxCell id="3nuBFxr9cyL0pnOWT2aG-17" value="Greet customer" style="rounded=0;whiteSpace=wrap;html=1;" parent="3nuBFxr9cyL0pnOWT2aG-16" vertex="1">
          <mxGeometry x="20" y="20" width="90" height="40" as="geometry" />
        </mxCell>
        <mxCell id="3nuBFxr9cyL0pnOWT2aG-18" value="" style="swimlane;connectable=0;startSize=0;html=1;whiteSpace=wrap;collapsible=0;recursiveResize=0;expand=0;" parent="3nuBFxr9cyL0pnOWT2aG-15" vertex="1">
          <mxGeometry x="170" width="370" height="80" as="geometry" />
        </mxCell>
        <mxCell id="3nuBFxr9cyL0pnOWT2aG-19" value="" style="edgeStyle=orthogonalEdgeStyle;rounded=0;orthogonalLoop=1;jettySize=auto;html=1;" parent="3nuBFxr9cyL0pnOWT2aG-18" source="3nuBFxr9cyL0pnOWT2aG-20" target="3nuBFxr9cyL0pnOWT2aG-22" edge="1">
          <mxGeometry relative="1" as="geometry" />
        </mxCell>
        <mxCell id="3nuBFxr9cyL0pnOWT2aG-20" value="Accept&lt;br&gt;payment" style="rounded=0;whiteSpace=wrap;html=1;" parent="3nuBFxr9cyL0pnOWT2aG-18" vertex="1">
          <mxGeometry x="150" y="20" width="90" height="40" as="geometry" />
        </mxCell>
        <mxCell id="3nuBFxr9cyL0pnOWT2aG-21" value="Write details&lt;br&gt;on cup" style="shape=document;whiteSpace=wrap;html=1;boundedLbl=1;" parent="3nuBFxr9cyL0pnOWT2aG-18" vertex="1">
          <mxGeometry x="20" y="10" width="90" height="60" as="geometry" />
        </mxCell>
        <mxCell id="3nuBFxr9cyL0pnOWT2aG-22" value="Make latte" style="shape=process;whiteSpace=wrap;html=1;backgroundOutline=1;" parent="3nuBFxr9cyL0pnOWT2aG-18" vertex="1">
          <mxGeometry x="260" y="20" width="90" height="40" as="geometry" />
        </mxCell>
        <mxCell id="3nuBFxr9cyL0pnOWT2aG-23" value="" style="swimlane;connectable=0;startSize=0;html=1;whiteSpace=wrap;collapsible=0;recursiveResize=0;expand=0;" parent="3nuBFxr9cyL0pnOWT2aG-15" vertex="1">
          <mxGeometry x="540" width="130" height="80" as="geometry" />
        </mxCell>
        <mxCell id="3nuBFxr9cyL0pnOWT2aG-24" value="" style="edgeStyle=orthogonalEdgeStyle;rounded=0;orthogonalLoop=1;jettySize=auto;html=1;" parent="3nuBFxr9cyL0pnOWT2aG-1" source="3nuBFxr9cyL0pnOWT2aG-17" target="3nuBFxr9cyL0pnOWT2aG-9" edge="1">
          <mxGeometry relative="1" as="geometry">
            <Array as="points">
              <mxPoint x="160" y="260" />
              <mxPoint x="160" y="180" />
            </Array>
          </mxGeometry>
        </mxCell>
        <mxCell id="3nuBFxr9cyL0pnOWT2aG-25" value="" style="edgeStyle=orthogonalEdgeStyle;rounded=0;orthogonalLoop=1;jettySize=auto;html=1;" parent="3nuBFxr9cyL0pnOWT2aG-1" source="3nuBFxr9cyL0pnOWT2aG-9" target="3nuBFxr9cyL0pnOWT2aG-21" edge="1">
          <mxGeometry relative="1" as="geometry" />
        </mxCell>
        <mxCell id="3nuBFxr9cyL0pnOWT2aG-26" value="" style="edgeStyle=orthogonalEdgeStyle;rounded=0;orthogonalLoop=1;jettySize=auto;html=1;" parent="3nuBFxr9cyL0pnOWT2aG-1" source="3nuBFxr9cyL0pnOWT2aG-21" target="3nuBFxr9cyL0pnOWT2aG-10" edge="1">
          <mxGeometry relative="1" as="geometry">
            <Array as="points">
              <mxPoint x="300" y="260" />
              <mxPoint x="300" y="180" />
            </Array>
          </mxGeometry>
        </mxCell>
        <mxCell id="3nuBFxr9cyL0pnOWT2aG-27" value="" style="edgeStyle=orthogonalEdgeStyle;rounded=0;orthogonalLoop=1;jettySize=auto;html=1;" parent="3nuBFxr9cyL0pnOWT2aG-1" source="3nuBFxr9cyL0pnOWT2aG-10" target="3nuBFxr9cyL0pnOWT2aG-20" edge="1">
          <mxGeometry relative="1" as="geometry" />
        </mxCell>
        <mxCell id="3nuBFxr9cyL0pnOWT2aG-28" style="edgeStyle=orthogonalEdgeStyle;rounded=0;orthogonalLoop=1;jettySize=auto;html=1;" parent="3nuBFxr9cyL0pnOWT2aG-1" source="3nuBFxr9cyL0pnOWT2aG-22" target="3nuBFxr9cyL0pnOWT2aG-13" edge="1">
          <mxGeometry relative="1" as="geometry">
            <Array as="points">
              <mxPoint x="530" y="260" />
              <mxPoint x="530" y="120" />
            </Array>
          </mxGeometry>
        </mxCell>
        <mxCell id="PuCEhKNZMnYfYK0v_hfo-1" value="" style="endArrow=classic;html=1;" edge="1" parent="1" source="PuCEhKNZMnYfYK0v_hfo-3">
          <mxGeometry width="50" height="50" relative="1" as="geometry">
            <mxPoint x="200" y="410" as="sourcePoint" />
            <mxPoint x="200" y="760" as="targetPoint" />
          </mxGeometry>
        </mxCell>
        <mxCell id="PuCEhKNZMnYfYK0v_hfo-25" style="edgeStyle=orthogonalEdgeStyle;rounded=0;orthogonalLoop=1;jettySize=auto;html=1;exitX=1;exitY=0.5;exitDx=0;exitDy=0;entryX=0.5;entryY=0;entryDx=0;entryDy=0;" edge="1" parent="1" source="PuCEhKNZMnYfYK0v_hfo-2" target="PuCEhKNZMnYfYK0v_hfo-8">
          <mxGeometry relative="1" as="geometry" />
        </mxCell>
        <mxCell id="PuCEhKNZMnYfYK0v_hfo-4" value="Ver1" style="text;html=1;strokeColor=none;fillColor=none;align=center;verticalAlign=middle;whiteSpace=wrap;rounded=0;" vertex="1" parent="1">
          <mxGeometry x="205" y="500" width="40" height="20" as="geometry" />
        </mxCell>
        <mxCell id="PuCEhKNZMnYfYK0v_hfo-5" value="Ver2" style="text;html=1;strokeColor=none;fillColor=none;align=center;verticalAlign=middle;whiteSpace=wrap;rounded=0;" vertex="1" parent="1">
          <mxGeometry x="220" y="660" width="40" height="20" as="geometry" />
        </mxCell>
        <mxCell id="PuCEhKNZMnYfYK0v_hfo-27" style="edgeStyle=orthogonalEdgeStyle;rounded=0;orthogonalLoop=1;jettySize=auto;html=1;exitX=0.5;exitY=1;exitDx=0;exitDy=0;" edge="1" parent="1" source="PuCEhKNZMnYfYK0v_hfo-8">
          <mxGeometry relative="1" as="geometry">
            <mxPoint x="200" y="730" as="targetPoint" />
            <Array as="points">
              <mxPoint x="295" y="730" />
            </Array>
          </mxGeometry>
        </mxCell>
        <mxCell id="PuCEhKNZMnYfYK0v_hfo-8" value="...." style="rounded=1;whiteSpace=wrap;html=1;" vertex="1" parent="1">
          <mxGeometry x="245" y="525" width="100" height="50" as="geometry" />
        </mxCell>
        <mxCell id="PuCEhKNZMnYfYK0v_hfo-10" value="判断幂等串已存存" style="rhombus;whiteSpace=wrap;html=1;" vertex="1" parent="1">
          <mxGeometry x="20" y="505" width="120" height="45" as="geometry" />
        </mxCell>
        <mxCell id="PuCEhKNZMnYfYK0v_hfo-14" value="Succ" style="rounded=1;whiteSpace=wrap;html=1;arcSize=50;" vertex="1" parent="1">
          <mxGeometry y="676" width="90" height="40" as="geometry" />
        </mxCell>
        <mxCell id="PuCEhKNZMnYfYK0v_hfo-17" value="增加明细&lt;br&gt;增大余额" style="rounded=1;whiteSpace=wrap;html=1;" vertex="1" parent="1">
          <mxGeometry x="50" y="590" width="120" height="60" as="geometry" />
        </mxCell>
        <mxCell id="PuCEhKNZMnYfYK0v_hfo-19" value="" style="endArrow=classic;html=1;exitX=0;exitY=0.5;exitDx=0;exitDy=0;" edge="1" parent="1" source="PuCEhKNZMnYfYK0v_hfo-2">
          <mxGeometry width="50" height="50" relative="1" as="geometry">
            <mxPoint x="200" y="430" as="sourcePoint" />
            <mxPoint x="80" y="500" as="targetPoint" />
            <Array as="points">
              <mxPoint x="80" y="480" />
            </Array>
          </mxGeometry>
        </mxCell>
        <mxCell id="PuCEhKNZMnYfYK0v_hfo-3" value="7" style="ellipse;whiteSpace=wrap;html=1;aspect=fixed;direction=west;" vertex="1" parent="1">
          <mxGeometry x="180" y="650" width="40" height="40" as="geometry" />
        </mxCell>
        <mxCell id="PuCEhKNZMnYfYK0v_hfo-20" value="" style="endArrow=none;html=1;endFill=0;" edge="1" parent="1" target="PuCEhKNZMnYfYK0v_hfo-3">
          <mxGeometry width="50" height="50" relative="1" as="geometry">
            <mxPoint x="200" y="410" as="sourcePoint" />
            <mxPoint x="200" y="740" as="targetPoint" />
          </mxGeometry>
        </mxCell>
        <mxCell id="PuCEhKNZMnYfYK0v_hfo-21" value="" style="endArrow=classic;html=1;exitX=0.5;exitY=1;exitDx=0;exitDy=0;entryX=0.25;entryY=0;entryDx=0;entryDy=0;" edge="1" parent="1" source="PuCEhKNZMnYfYK0v_hfo-10" target="PuCEhKNZMnYfYK0v_hfo-17">
          <mxGeometry width="50" height="50" relative="1" as="geometry">
            <mxPoint x="200" y="430" as="sourcePoint" />
            <mxPoint x="250" y="380" as="targetPoint" />
          </mxGeometry>
        </mxCell>
        <mxCell id="PuCEhKNZMnYfYK0v_hfo-22" value="" style="endArrow=classic;html=1;entryX=1;entryY=0.5;entryDx=0;entryDy=0;" edge="1" parent="1" target="PuCEhKNZMnYfYK0v_hfo-3">
          <mxGeometry width="50" height="50" relative="1" as="geometry">
            <mxPoint x="80" y="650" as="sourcePoint" />
            <mxPoint x="130" y="600" as="targetPoint" />
            <Array as="points">
              <mxPoint x="80" y="670" />
            </Array>
          </mxGeometry>
        </mxCell>
        <mxCell id="PuCEhKNZMnYfYK0v_hfo-23" value="" style="endArrow=classic;html=1;exitX=0;exitY=0.5;exitDx=0;exitDy=0;entryX=0.25;entryY=0;entryDx=0;entryDy=0;" edge="1" parent="1" source="PuCEhKNZMnYfYK0v_hfo-10" target="PuCEhKNZMnYfYK0v_hfo-14">
          <mxGeometry width="50" height="50" relative="1" as="geometry">
            <mxPoint x="200" y="430" as="sourcePoint" />
            <mxPoint x="250" y="380" as="targetPoint" />
          </mxGeometry>
        </mxCell>
        <mxCell id="PuCEhKNZMnYfYK0v_hfo-18" value="Start" style="rounded=1;whiteSpace=wrap;html=1;arcSize=50;" vertex="1" parent="1">
          <mxGeometry x="155" y="390" width="90" height="40" as="geometry" />
        </mxCell>
        <mxCell id="PuCEhKNZMnYfYK0v_hfo-2" value="5" style="ellipse;whiteSpace=wrap;html=1;aspect=fixed;" vertex="1" parent="1">
          <mxGeometry x="180" y="460" width="40" height="40" as="geometry" />
        </mxCell>
        <mxCell id="PuCEhKNZMnYfYK0v_hfo-28" value="业务1" style="text;html=1;strokeColor=none;fillColor=none;align=center;verticalAlign=middle;whiteSpace=wrap;rounded=0;" vertex="1" parent="1">
          <mxGeometry x="25" y="420" width="40" height="20" as="geometry" />
        </mxCell>
        <mxCell id="PuCEhKNZMnYfYK0v_hfo-29" value="业务2" style="text;html=1;strokeColor=none;fillColor=none;align=center;verticalAlign=middle;whiteSpace=wrap;rounded=0;" vertex="1" parent="1">
          <mxGeometry x="300" y="420" width="40" height="20" as="geometry" />
        </mxCell>
        <mxCell id="PuCEhKNZMnYfYK0v_hfo-30" value="&lt;font color=&quot;#ff0000&quot;&gt;Fail&lt;/font&gt;" style="text;html=1;strokeColor=none;fillColor=none;align=center;verticalAlign=middle;whiteSpace=wrap;rounded=0;" vertex="1" parent="1">
          <mxGeometry x="155" y="720" width="40" height="20" as="geometry" />
        </mxCell>
        <mxCell id="PuCEhKNZMnYfYK0v_hfo-33" value="" style="endArrow=classic;html=1;exitX=1;exitY=0;exitDx=0;exitDy=0;entryX=1;entryY=0.5;entryDx=0;entryDy=0;" edge="1" parent="1" source="PuCEhKNZMnYfYK0v_hfo-3" target="PuCEhKNZMnYfYK0v_hfo-14">
          <mxGeometry width="50" height="50" relative="1" as="geometry">
            <mxPoint x="200" y="430" as="sourcePoint" />
            <mxPoint x="250" y="380" as="targetPoint" />
            <Array as="points">
              <mxPoint x="186" y="696" />
            </Array>
          </mxGeometry>
        </mxCell>
        <mxCell id="PuCEhKNZMnYfYK0v_hfo-35" value="" style="shape=umlActor;verticalLabelPosition=bottom;verticalAlign=top;html=1;outlineConnect=0;" vertex="1" parent="1">
          <mxGeometry x="42.5" y="820" width="30" height="60" as="geometry" />
        </mxCell>
        <mxCell id="PuCEhKNZMnYfYK0v_hfo-49" value="本次增加2金币&lt;br&gt;凭证1" style="rounded=0;whiteSpace=wrap;html=1;" vertex="1" parent="1">
          <mxGeometry x="122.5" y="820" width="120" height="60" as="geometry" />
        </mxCell>
        <mxCell id="PuCEhKNZMnYfYK0v_hfo-50" value="计算新余额为C1+2" style="shape=process;whiteSpace=wrap;html=1;backgroundOutline=1;" vertex="1" parent="1">
          <mxGeometry x="330" y="820" width="120" height="60" as="geometry" />
        </mxCell>
        <mxCell id="PuCEhKNZMnYfYK0v_hfo-55" value="End" style="rounded=1;whiteSpace=wrap;html=1;arcSize=50;" vertex="1" parent="1">
          <mxGeometry x="487.5" y="970" width="90" height="40" as="geometry" />
        </mxCell>
        <mxCell id="PuCEhKNZMnYfYK0v_hfo-56" value="" style="endArrow=classic;html=1;exitX=0.5;exitY=0.5;exitDx=0;exitDy=0;exitPerimeter=0;entryX=0;entryY=0.5;entryDx=0;entryDy=0;" edge="1" parent="1" source="PuCEhKNZMnYfYK0v_hfo-35" target="PuCEhKNZMnYfYK0v_hfo-49">
          <mxGeometry width="50" height="50" relative="1" as="geometry">
            <mxPoint x="167.5" y="840" as="sourcePoint" />
            <mxPoint x="217.5" y="790" as="targetPoint" />
          </mxGeometry>
        </mxCell>
        <mxCell id="PuCEhKNZMnYfYK0v_hfo-57" value="" style="endArrow=classic;html=1;exitX=0.5;exitY=1;exitDx=0;exitDy=0;" edge="1" parent="1" source="PuCEhKNZMnYfYK0v_hfo-49" target="PuCEhKNZMnYfYK0v_hfo-47">
          <mxGeometry width="50" height="50" relative="1" as="geometry">
            <mxPoint x="167.5" y="840" as="sourcePoint" />
            <mxPoint x="217.5" y="790" as="targetPoint" />
          </mxGeometry>
        </mxCell>
        <mxCell id="PuCEhKNZMnYfYK0v_hfo-58" value="" style="group" vertex="1" connectable="0" parent="1">
          <mxGeometry x="85" y="930" width="195" height="110" as="geometry" />
        </mxCell>
        <mxCell id="PuCEhKNZMnYfYK0v_hfo-46" value="" style="group" vertex="1" connectable="0" parent="PuCEhKNZMnYfYK0v_hfo-58">
          <mxGeometry x="42.5" y="20" width="115" height="90" as="geometry" />
        </mxCell>
        <mxCell id="PuCEhKNZMnYfYK0v_hfo-45" value="" style="shape=internalStorage;whiteSpace=wrap;html=1;backgroundOutline=1;" vertex="1" parent="PuCEhKNZMnYfYK0v_hfo-46">
          <mxGeometry x="35" width="80" height="80" as="geometry" />
        </mxCell>
        <mxCell id="PuCEhKNZMnYfYK0v_hfo-43" value="" style="shape=datastore;whiteSpace=wrap;html=1;" vertex="1" parent="PuCEhKNZMnYfYK0v_hfo-46">
          <mxGeometry y="30" width="60" height="60" as="geometry" />
        </mxCell>
        <mxCell id="PuCEhKNZMnYfYK0v_hfo-47" value="当前余额C1, 明细表版本V1" style="text;html=1;strokeColor=none;fillColor=none;align=center;verticalAlign=middle;whiteSpace=wrap;rounded=0;" vertex="1" parent="PuCEhKNZMnYfYK0v_hfo-58">
          <mxGeometry width="195" height="20" as="geometry" />
        </mxCell>
        <mxCell id="PuCEhKNZMnYfYK0v_hfo-59" value="" style="group" vertex="1" connectable="0" parent="1">
          <mxGeometry x="292.5" y="930" width="195" height="110" as="geometry" />
        </mxCell>
        <mxCell id="PuCEhKNZMnYfYK0v_hfo-51" value="" style="group" vertex="1" connectable="0" parent="PuCEhKNZMnYfYK0v_hfo-59">
          <mxGeometry x="40" y="20" width="115" height="90" as="geometry" />
        </mxCell>
        <mxCell id="PuCEhKNZMnYfYK0v_hfo-52" value="" style="shape=internalStorage;whiteSpace=wrap;html=1;backgroundOutline=1;" vertex="1" parent="PuCEhKNZMnYfYK0v_hfo-51">
          <mxGeometry x="35" width="80" height="80" as="geometry" />
        </mxCell>
        <mxCell id="PuCEhKNZMnYfYK0v_hfo-53" value="" style="shape=datastore;whiteSpace=wrap;html=1;" vertex="1" parent="PuCEhKNZMnYfYK0v_hfo-51">
          <mxGeometry y="30" width="60" height="60" as="geometry" />
        </mxCell>
        <mxCell id="PuCEhKNZMnYfYK0v_hfo-54" value="写入余额为C1+2, 版本V1" style="text;html=1;strokeColor=none;fillColor=none;align=center;verticalAlign=middle;whiteSpace=wrap;rounded=0;" vertex="1" parent="PuCEhKNZMnYfYK0v_hfo-59">
          <mxGeometry width="195" height="20" as="geometry" />
        </mxCell>
        <mxCell id="PuCEhKNZMnYfYK0v_hfo-60" value="" style="endArrow=classic;html=1;exitX=0.5;exitY=1;exitDx=0;exitDy=0;" edge="1" parent="1" source="PuCEhKNZMnYfYK0v_hfo-50" target="PuCEhKNZMnYfYK0v_hfo-54">
          <mxGeometry width="50" height="50" relative="1" as="geometry">
            <mxPoint x="377.5" y="880" as="sourcePoint" />
            <mxPoint x="427.5" y="830" as="targetPoint" />
          </mxGeometry>
        </mxCell>
        <mxCell id="PuCEhKNZMnYfYK0v_hfo-61" style="edgeStyle=orthogonalEdgeStyle;rounded=0;orthogonalLoop=1;jettySize=auto;html=1;exitX=1;exitY=0.25;exitDx=0;exitDy=0;entryX=0;entryY=0.5;entryDx=0;entryDy=0;endArrow=classic;endFill=1;" edge="1" parent="1" source="PuCEhKNZMnYfYK0v_hfo-45" target="PuCEhKNZMnYfYK0v_hfo-50">
          <mxGeometry relative="1" as="geometry" />
        </mxCell>
        <mxCell id="PuCEhKNZMnYfYK0v_hfo-63" style="edgeStyle=orthogonalEdgeStyle;rounded=0;orthogonalLoop=1;jettySize=auto;html=1;exitX=1;exitY=0.5;exitDx=0;exitDy=0;entryX=0;entryY=0.5;entryDx=0;entryDy=0;endArrow=classic;endFill=1;" edge="1" parent="1" source="PuCEhKNZMnYfYK0v_hfo-52" target="PuCEhKNZMnYfYK0v_hfo-55">
          <mxGeometry relative="1" as="geometry" />
        </mxCell>
        <mxCell id="PuCEhKNZMnYfYK0v_hfo-64" value="金币服务" style="rounded=1;whiteSpace=wrap;html=1;" vertex="1" parent="1">
          <mxGeometry x="720" y="540" width="120" height="120" as="geometry" />
        </mxCell>
        <mxCell id="PuCEhKNZMnYfYK0v_hfo-65" value="外部券平台" style="rounded=1;whiteSpace=wrap;html=1;" vertex="1" parent="1">
          <mxGeometry x="720" y="696" width="120" height="60" as="geometry" />
        </mxCell>
        <mxCell id="PuCEhKNZMnYfYK0v_hfo-66" value="&lt;font style=&quot;font-size: 8px&quot;&gt;Try扣金币&lt;br&gt;&lt;/font&gt;" style="rounded=1;whiteSpace=wrap;html=1;" vertex="1" parent="1">
          <mxGeometry x="670" y="555" width="70" height="30" as="geometry" />
        </mxCell>
        <mxCell id="PuCEhKNZMnYfYK0v_hfo-67" value="Commit" style="rounded=1;whiteSpace=wrap;html=1;" vertex="1" parent="1">
          <mxGeometry x="670" y="590" width="70" height="30" as="geometry" />
        </mxCell>
        <mxCell id="PuCEhKNZMnYfYK0v_hfo-69" value="Cancel" style="rounded=1;whiteSpace=wrap;html=1;" vertex="1" parent="1">
          <mxGeometry x="670" y="626" width="70" height="30" as="geometry" />
        </mxCell>
        <mxCell id="PuCEhKNZMnYfYK0v_hfo-90" style="edgeStyle=orthogonalEdgeStyle;rounded=0;orthogonalLoop=1;jettySize=auto;html=1;exitX=0;exitY=0.5;exitDx=0;exitDy=0;entryX=0;entryY=0.5;entryDx=0;entryDy=0;endArrow=classic;endFill=1;strokeColor=#3333FF;" edge="1" parent="1" source="PuCEhKNZMnYfYK0v_hfo-72" target="PuCEhKNZMnYfYK0v_hfo-73">
          <mxGeometry relative="1" as="geometry" />
        </mxCell>
        <mxCell id="PuCEhKNZMnYfYK0v_hfo-91" value="7.异步发券" style="edgeLabel;html=1;align=center;verticalAlign=middle;resizable=0;points=[];" vertex="1" connectable="0" parent="PuCEhKNZMnYfYK0v_hfo-90">
          <mxGeometry x="0.0964" y="-1" relative="1" as="geometry">
            <mxPoint as="offset" />
          </mxGeometry>
        </mxCell>
        <mxCell id="PuCEhKNZMnYfYK0v_hfo-72" value="MQ" style="rounded=1;whiteSpace=wrap;html=1;" vertex="1" parent="1">
          <mxGeometry x="400" y="696" width="120" height="60" as="geometry" />
        </mxCell>
        <mxCell id="PuCEhKNZMnYfYK0v_hfo-77" style="edgeStyle=orthogonalEdgeStyle;rounded=0;orthogonalLoop=1;jettySize=auto;html=1;exitX=0.5;exitY=1;exitDx=0;exitDy=0;endArrow=classic;endFill=1;" edge="1" parent="1" source="PuCEhKNZMnYfYK0v_hfo-73">
          <mxGeometry relative="1" as="geometry">
            <mxPoint x="440" y="696" as="targetPoint" />
            <Array as="points">
              <mxPoint x="440" y="600" />
            </Array>
          </mxGeometry>
        </mxCell>
        <mxCell id="PuCEhKNZMnYfYK0v_hfo-73" value="兑换服务" style="rounded=0;whiteSpace=wrap;html=1;" vertex="1" parent="1">
          <mxGeometry x="400" y="540" width="120" height="60" as="geometry" />
        </mxCell>
        <mxCell id="PuCEhKNZMnYfYK0v_hfo-78" value="1. 启动定时校对逻辑" style="text;html=1;strokeColor=none;fillColor=none;align=center;verticalAlign=middle;whiteSpace=wrap;rounded=0;" vertex="1" parent="1">
          <mxGeometry x="410" y="636" width="40" height="20" as="geometry" />
        </mxCell>
        <mxCell id="PuCEhKNZMnYfYK0v_hfo-79" value="" style="endArrow=classic;html=1;entryX=0;entryY=0.5;entryDx=0;entryDy=0;exitX=1;exitY=0.5;exitDx=0;exitDy=0;" edge="1" parent="1" source="PuCEhKNZMnYfYK0v_hfo-73" target="PuCEhKNZMnYfYK0v_hfo-66">
          <mxGeometry width="50" height="50" relative="1" as="geometry">
            <mxPoint x="640" y="660" as="sourcePoint" />
            <mxPoint x="690" y="610" as="targetPoint" />
          </mxGeometry>
        </mxCell>
        <mxCell id="PuCEhKNZMnYfYK0v_hfo-80" value="2.扣金币,Handing状态" style="edgeLabel;html=1;align=center;verticalAlign=middle;resizable=0;points=[];" vertex="1" connectable="0" parent="PuCEhKNZMnYfYK0v_hfo-79">
          <mxGeometry x="-0.3324" relative="1" as="geometry">
            <mxPoint as="offset" />
          </mxGeometry>
        </mxCell>
        <mxCell id="PuCEhKNZMnYfYK0v_hfo-81" value="" style="endArrow=classic;html=1;entryX=0;entryY=0.5;entryDx=0;entryDy=0;exitX=1;exitY=1;exitDx=0;exitDy=0;" edge="1" parent="1" source="PuCEhKNZMnYfYK0v_hfo-73" target="PuCEhKNZMnYfYK0v_hfo-65">
          <mxGeometry width="50" height="50" relative="1" as="geometry">
            <mxPoint x="640" y="660" as="sourcePoint" />
            <mxPoint x="690" y="610" as="targetPoint" />
          </mxGeometry>
        </mxCell>
        <mxCell id="PuCEhKNZMnYfYK0v_hfo-82" value="3.发券" style="edgeLabel;html=1;align=center;verticalAlign=middle;resizable=0;points=[];" vertex="1" connectable="0" parent="PuCEhKNZMnYfYK0v_hfo-81">
          <mxGeometry x="-0.2021" y="-2" relative="1" as="geometry">
            <mxPoint as="offset" />
          </mxGeometry>
        </mxCell>
        <mxCell id="PuCEhKNZMnYfYK0v_hfo-83" value="4.更改Succ状态" style="endArrow=classic;html=1;entryX=0;entryY=0.5;entryDx=0;entryDy=0;exitX=1;exitY=0.75;exitDx=0;exitDy=0;" edge="1" parent="1" source="PuCEhKNZMnYfYK0v_hfo-73" target="PuCEhKNZMnYfYK0v_hfo-67">
          <mxGeometry width="50" height="50" relative="1" as="geometry">
            <mxPoint x="640" y="660" as="sourcePoint" />
            <mxPoint x="690" y="610" as="targetPoint" />
          </mxGeometry>
        </mxCell>
        <mxCell id="PuCEhKNZMnYfYK0v_hfo-84" value="" style="endArrow=classic;html=1;exitX=0.75;exitY=1;exitDx=0;exitDy=0;entryX=0.75;entryY=0;entryDx=0;entryDy=0;strokeColor=#FF0000;" edge="1" parent="1" source="PuCEhKNZMnYfYK0v_hfo-73" target="PuCEhKNZMnYfYK0v_hfo-72">
          <mxGeometry width="50" height="50" relative="1" as="geometry">
            <mxPoint x="570" y="750" as="sourcePoint" />
            <mxPoint x="620" y="700" as="targetPoint" />
          </mxGeometry>
        </mxCell>
        <mxCell id="PuCEhKNZMnYfYK0v_hfo-85" value="&lt;font color=&quot;#ff0000&quot;&gt;6.发券系统失败&lt;/font&gt;" style="edgeLabel;html=1;align=center;verticalAlign=middle;resizable=0;points=[];" vertex="1" connectable="0" parent="PuCEhKNZMnYfYK0v_hfo-84">
          <mxGeometry x="-0.0524" relative="1" as="geometry">
            <mxPoint as="offset" />
          </mxGeometry>
        </mxCell>
        <mxCell id="PuCEhKNZMnYfYK0v_hfo-86" value="" style="endArrow=classic;html=1;entryX=0;entryY=0.5;entryDx=0;entryDy=0;strokeColor=#3333FF;" edge="1" parent="1" target="PuCEhKNZMnYfYK0v_hfo-69">
          <mxGeometry width="50" height="50" relative="1" as="geometry">
            <mxPoint x="520" y="600" as="sourcePoint" />
            <mxPoint x="690" y="610" as="targetPoint" />
          </mxGeometry>
        </mxCell>
        <mxCell id="PuCEhKNZMnYfYK0v_hfo-87" value="&lt;font color=&quot;#0000ff&quot;&gt;5.退余额,Fail&lt;/font&gt;" style="edgeLabel;html=1;align=center;verticalAlign=middle;resizable=0;points=[];" vertex="1" connectable="0" parent="PuCEhKNZMnYfYK0v_hfo-86">
          <mxGeometry x="-0.095" relative="1" as="geometry">
            <mxPoint as="offset" />
          </mxGeometry>
        </mxCell>
      </root>
    </mxGraphModel>
  </diagram>
</mxfile>
